<svg aria-hidden="true" style="width:0;height:0;position:absolute;overflow:hidden" xmlns="http://www.w3.org/2000/svg"><defs><symbol id="icon-search" viewBox="0 0 32 32"><path stroke-linejoin="round" stroke-linecap="round" stroke-width="2" d="M14.667 25.333c5.891 0 10.667-4.776 10.667-10.667S20.558 3.999 14.667 3.999 4 8.775 4 14.666s4.776 10.667 10.667 10.667zM28 28l-5.8-5.8"/></symbol><symbol id="icon-film" viewBox="0 0 32 32"><path fill="none" stroke="#fff" style="stroke:var(--color1,#fff)" stroke-linejoin="round" stroke-linecap="round" stroke-width="2.17" d="M26.427 2.667H5.574a2.907 2.907 0 0 0-2.907 2.907v20.853a2.907 2.907 0 0 0 2.907 2.907h20.853a2.907 2.907 0 0 0 2.907-2.907V5.574a2.907 2.907 0 0 0-2.907-2.907zM9.333 2.667v26.667M22.667 2.667v26.667M2.667 16h26.667M2.667 9.333h6.667M2.667 22.667h6.667M22.667 22.667h6.667M22.667 9.333h6.667"/></symbol><symbol id="icon-library" viewBox="0 0 89 32"><path fill="#fff" style="fill:var(--color1,#fff)" d="M16 0h57.143c8.837 0 16 7.163 16 16s-7.163 16-16 16H16C7.163 32 0 24.837 0 16S7.163 0 16 0z"/><path style="fill:var(--color2,#000)" d="M19.687 12.548h1l1.879 5.013 1.875-5.013h1l-2.482 6.5h-.795l-2.478-6.5zm-.455 0h.951l.165 4.339v2.161h-1.116v-6.5zm5.714 0h.955v6.5H24.78v-2.161l.165-4.339zm2.782 0 1.509 3.103 1.509-3.103h1.241l-2.188 4.107v2.393H28.67v-2.393l-2.188-4.107h1.246zm11.317 5.611v.888h-3.263v-.888h3.263zm-2.951-5.611v6.5h-1.121v-6.5h1.121zm5.013 0v6.5h-1.121v-6.5h1.121zm3.831 3.562h-1.656l-.009-.817h1.446c.244 0 .451-.036.62-.107a.853.853 0 0 0 .393-.317.92.92 0 0 0 .134-.504c0-.217-.042-.394-.125-.531s-.211-.237-.384-.299a1.902 1.902 0 0 0-.652-.094H43.62v5.607h-1.121v-6.5h2.205c.357 0 .676.034.955.103.283.069.522.176.719.321.199.143.35.324.451.545.104.22.156.482.156.786 0 .268-.064.513-.192.737-.128.22-.317.4-.567.54s-.561.223-.933.25l-.357.281zm-.05 2.938h-1.96l.504-.888h1.455c.253 0 .464-.042.634-.125a.875.875 0 0 0 .38-.353 1.06 1.06 0 0 0 .129-.531c0-.211-.037-.394-.112-.549a.77.77 0 0 0-.353-.362c-.161-.086-.37-.13-.629-.13h-1.259l.009-.817h1.638l.254.308c.357.012.65.091.879.237.232.146.405.335.518.567s.17.482.17.75c0 .414-.091.76-.272 1.04-.178.28-.436.492-.772.638-.336.143-.741.214-1.214.214zm3.389-6.5h2.299c.494 0 .915.074 1.263.223s.615.369.799.661c.188.289.281.646.281 1.071 0 .324-.059.61-.178.857s-.287.455-.505.625a2.42 2.42 0 0 1-.777.388l-.339.165h-2.067l-.009-.888h1.549c.268 0 .491-.048.67-.143s.313-.225.402-.388c.092-.167.138-.354.138-.563 0-.226-.045-.423-.134-.589a.856.856 0 0 0-.402-.388c-.182-.092-.412-.138-.692-.138h-1.179v5.607h-1.121v-6.5zm3.71 6.5-1.527-2.92 1.174-.005 1.549 2.866v.058h-1.196zm4.58-5.634-1.942 5.634h-1.174l2.446-6.5h.75l-.08.866zm1.625 5.634-1.946-5.634-.085-.866h.755l2.455 6.5h-1.178zm-.094-2.411v.888h-3.536v-.888h3.536zm2-4.089h2.299c.494 0 .915.074 1.263.223s.615.369.799.661c.188.289.281.646.281 1.071 0 .324-.06.61-.179.857s-.287.455-.504.625a2.42 2.42 0 0 1-.777.388l-.339.165h-2.067l-.009-.888h1.549c.268 0 .491-.048.67-.143s.313-.225.402-.388c.092-.167.138-.354.138-.563 0-.226-.045-.423-.134-.589a.856.856 0 0 0-.402-.388c-.182-.092-.412-.138-.692-.138h-1.179v5.607h-1.121v-6.5zm3.71 6.5-1.527-2.92 1.174-.005 1.549 2.866v.058h-1.197zm2.455-6.5 1.509 3.103 1.509-3.103h1.241l-2.187 4.107v2.393h-1.13v-2.393l-2.188-4.107h1.246z"/></symbol><symbol id="icon-home" viewBox="0 0 75 32"><path style="fill:var(--color2,#000)" d="M16 0h43.429c8.837 0 16 7.163 16 16s-7.163 16-16 16H16C7.163 32 0 24.837 0 16S7.163 0 16 0z"/><path fill="#fff" style="fill:var(--color1,#fff)" d="M29.687 15.262v.888h-3.451v-.888h3.451zm-3.174-2.714v6.5h-1.121v-6.5h1.121zm4.036 0v6.5h-1.116v-6.5h1.116zm6.518 3.071v.357c0 .491-.064.931-.192 1.321s-.311.722-.549.996a2.35 2.35 0 0 1-.848.629c-.33.143-.696.214-1.098.214-.399 0-.763-.071-1.094-.214-.327-.146-.612-.356-.853-.629s-.429-.606-.563-.996a4.136 4.136 0 0 1-.196-1.321v-.357c0-.491.065-.93.196-1.317.131-.39.315-.722.554-.996.241-.277.525-.487.853-.629.33-.146.695-.219 1.094-.219.402 0 .768.073 1.098.219.33.143.615.353.853.629.238.274.421.606.549.996.131.387.196.826.196 1.317zm-1.121.357v-.366c0-.363-.036-.683-.107-.96a1.981 1.981 0 0 0-.308-.701 1.297 1.297 0 0 0-.496-.429c-.196-.098-.418-.147-.665-.147s-.467.049-.661.147a1.322 1.322 0 0 0-.495.429 2.075 2.075 0 0 0-.308.701 3.884 3.884 0 0 0-.107.96v.366c0 .363.036.685.107.964s.176.516.312.71c.14.19.307.335.5.433.193.095.414.143.661.143.25 0 .472-.048.665-.143.193-.098.357-.243.491-.433.134-.193.235-.43.304-.71.071-.28.107-.601.107-.964zm2.697-3.428h1l1.879 5.013 1.875-5.013h1l-2.482 6.5h-.795l-2.478-6.5zm-.455 0h.951l.165 4.339v2.161h-1.116v-6.5zm5.714 0h.955v6.5h-1.121v-2.161l.165-4.339zm6.54 5.611v.888h-3.451v-.888h3.451zm-3.134-5.611v6.5h-1.121v-6.5h1.121zm2.683 2.714v.875h-3v-.875h3zm.429-2.714v.893h-3.429v-.893h3.429z"/></symbol><symbol id="icon-rectangle" viewBox="0 0 142 32"><path fill="#fff" style="fill:var(--color1,#fff)" d="M16 0h110.476c8.837 0 16 7.163 16 16s-7.163 16-16 16H16C7.163 32 0 24.837 0 16S7.163 0 16 0z"/></symbol><symbol id="trailer-btn" viewBox="0 0 32 32"><path d="M16 0C7.163 0 0 7.163 0 16s7.163 16 16 16 16-7.163 16-16S24.837 0 16 0zm0 29C8.82 29 3 23.18 3 16S8.82 3 16 3s13 5.82 13 13-5.82 13-13 13zM12 9l12 7-12 7z" fill="rgba(234,113,46,1)"/></symbol><symbol id="close-icon" viewBox="0 0 24 24"><path d="M18.3 5.71a1 1 0 0 0-1.41 0L12 10.59 7.11 5.71A1 1 0 1 0 5.7 7.12L10.59 12 5.7 16.89a1 1 0 0 0 1.41 1.41L12 13.41l4.88 4.89a1 1 0 1 0 1.41-1.41L13.41 12l4.88-4.88a1 1 0 0 0 0-1.41z"/></symbol><symbol id="watched-icon" viewBox="0 0 24 24"><path d="M12 2a10 10 0 1 0 10 10A10 10 0 0 0 12 2zm-1 15-5-5 1.41-1.41L11 14.17l5.59-5.59L18 10z"/></symbol><symbol id="queue-icon" viewBox="0 0 24 24"><path d="M20 4H4a2 2 0 0 0-2 2v12a2 2 0 0 0 2 2h16a2 2 0 0 0 2-2V6a2 2 0 0 0-2-2zM4 6h16v5H4zm0 7h16v5H4z"/></symbol><symbol id="icon-close" viewBox="0 0 32 32"><path d="M31.708 25.708 22 16l9.708-9.708a1 1 0 0 0 0-1.414L27.122.292a1 1 0 0 0-1.414-.001L16 9.999 6.292.291a.998.998 0 0 0-1.414.001L.292 4.878a1 1 0 0 0 0 1.414L10 16 .292 25.708a.999.999 0 0 0 0 1.414l4.586 4.586a1 1 0 0 0 1.414 0L16 22l9.708 9.708a1 1 0 0 0 1.414 0l4.586-4.586a.999.999 0 0 0 0-1.414z"/></symbol><symbol id="icon-github" viewBox="0 0 32 32"><path d="M16 .395c-8.836 0-16 7.163-16 16 0 7.069 4.585 13.067 10.942 15.182.8.148 1.094-.347 1.094-.77 0-.381-.015-1.642-.022-2.979-4.452.968-5.391-1.888-5.391-1.888-.728-1.849-1.776-2.341-1.776-2.341-1.452-.993.11-.973.11-.973 1.606.113 2.452 1.649 2.452 1.649 1.427 2.446 3.743 1.739 4.656 1.33.143-1.034.558-1.74 1.016-2.14-3.554-.404-7.29-1.777-7.29-7.907 0-1.747.625-3.174 1.649-4.295-.166-.403-.714-2.03.155-4.234 0 0 1.344-.43 4.401 1.64a15.353 15.353 0 0 1 4.005-.539c1.359.006 2.729.184 4.008.539 3.054-2.07 4.395-1.64 4.395-1.64.871 2.204.323 3.831.157 4.234 1.026 1.12 1.647 2.548 1.647 4.295 0 6.145-3.743 7.498-7.306 7.895.574.497 1.085 1.47 1.085 2.963 0 2.141-.019 3.864-.019 4.391 0 .426.288.925 1.099.768C27.421 29.457 32 23.462 32 16.395c0-8.837-7.164-16-16-16z"/></symbol><symbol id="icon-switch-theme" viewBox="0 0 32 32"><path d="M23.273 7.273H8.728C3.916 7.273.001 11.188.001 16s3.915 8.727 8.727 8.727h14.545C28.085 24.727 32 20.812 32 16s-3.915-8.727-8.727-8.727zm0 14.545c-3.208 0-5.818-2.61-5.818-5.818s2.61-5.818 5.818-5.818 5.818 2.61 5.818 5.818-2.61 5.818-5.818 5.818z"/></symbol></defs></svg>