<svg xmlns="http://www.w3.org/2000/svg" style="display: none">
    <symbol id="trailer-btn" viewBox="0 0 24 24">
        <path d="M8 5v14l11-7z" />
    </symbol>

    <symbol id="close-icon" viewBox="0 0 24 24">
        <path
            d="M18.3 5.71a1 1 0 0 0-1.41 0L12 10.59 7.11 5.71A1 1 0 1 0 5.7 7.12l4.89 4.88-4.89 4.89a1 1 0 0 0 1.41 1.41l4.89-4.89 4.88 4.89a1 1 0 1 0 1.41-1.41l-4.88-4.89 4.88-4.88a1 1 0 0 0 0-1.41z" />
    </symbol>

    <symbol id="watched-icon" viewBox="0 0 24 24">
        <path d="M12 2a10 10 0 1 0 10 10A10 10 0 0 0 12 2zm-1 15-5-5 1.41-1.41L11 14.17l5.59-5.59L18 10z" />
    </symbol>

    <symbol id="queue-icon" viewBox="0 0 24 24">
        <path d="M20 4H4a2 2 0 0 0-2 2v12a2 2 0 0 0 2 2h16a2 2 0 0 0 2-2V6a2 2 0 0 0-2-2zM4 6h16v5H4zm0 7h16v5H4z" />
    </symbol>
</svg>