<svg aria-hidden="true" style="width: 0; height: 0; position: absolute; overflow: hidden" version="1.1" xmlns="http://www.w3.org/2000/svg" xmlns:xlink="http://www.w3.org/1999/xlink">
<defs>
<symbol id="icon-search" viewBox="0 0 32 32">
<path stroke-linejoin="round" stroke-linecap="round" stroke-miterlimit="4" stroke-width="2" d="M14.667 25.333c5.891 0 10.667-4.776 10.667-10.667s-4.776-10.667-10.667-10.667c-5.891 0-10.667 4.776-10.667 10.667s4.776 10.667 10.667 10.667z"></path>
<path stroke-linejoin="round" stroke-linecap="round" stroke-miterlimit="4" stroke-width="2" d="M28 28l-5.8-5.8"></path>
</symbol>
<symbol id="icon-film" viewBox="0 0 32 32">
<path fill="none" stroke="#fff" style="stroke: var(--color1, #fff)" stroke-linejoin="round" stroke-linecap="round" stroke-miterlimit="4" stroke-width="2.1695" d="M26.427 2.667h-20.853c-1.605 0-2.907 1.301-2.907 2.907v20.853c0 1.605 1.301 2.907 2.907 2.907h20.853c1.605 0 2.907-1.301 2.907-2.907v-20.853c0-1.605-1.301-2.907-2.907-2.907z"></path>
<path fill="none" stroke="#fff" style="stroke: var(--color1, #fff)" stroke-linejoin="round" stroke-linecap="round" stroke-miterlimit="4" stroke-width="2.1695" d="M9.333 2.667v26.667"></path>
<path fill="none" stroke="#fff" style="stroke: var(--color1, #fff)" stroke-linejoin="round" stroke-linecap="round" stroke-miterlimit="4" stroke-width="2.1695" d="M22.667 2.667v26.667"></path>
<path fill="none" stroke="#fff" style="stroke: var(--color1, #fff)" stroke-linejoin="round" stroke-linecap="round" stroke-miterlimit="4" stroke-width="2.1695" d="M2.667 16h26.667"></path>
<path fill="none" stroke="#fff" style="stroke: var(--color1, #fff)" stroke-linejoin="round" stroke-linecap="round" stroke-miterlimit="4" stroke-width="2.1695" d="M2.667 9.333h6.667"></path>
<path fill="none" stroke="#fff" style="stroke: var(--color1, #fff)" stroke-linejoin="round" stroke-linecap="round" stroke-miterlimit="4" stroke-width="2.1695" d="M2.667 22.667h6.667"></path>
<path fill="none" stroke="#fff" style="stroke: var(--color1, #fff)" stroke-linejoin="round" stroke-linecap="round" stroke-miterlimit="4" stroke-width="2.1695" d="M22.667 22.667h6.667"></path>
<path fill="none" stroke="#fff" style="stroke: var(--color1, #fff)" stroke-linejoin="round" stroke-linecap="round" stroke-miterlimit="4" stroke-width="2.1695" d="M22.667 9.333h6.667"></path>
</symbol>
<symbol id="icon-library" viewBox="0 0 89 32">
<path fill="#fff" style="fill: var(--color1, #fff)" d="M16 0h57.143c8.837 0 16 7.163 16 16s-7.163 16-16 16h-57.143c-8.837 0-16-7.163-16-16s7.163-16 16-16z"></path>
<path fill="#000" style="fill: var(--color2, #000)" d="M19.687 12.548h1l1.879 5.013 1.875-5.013h1l-2.482 6.5h-0.795l-2.478-6.5zM19.232 12.548h0.951l0.165 4.339v2.161h-1.116v-6.5zM24.946 12.548h0.955v6.5h-1.121v-2.161l0.165-4.339zM27.728 12.548l1.509 3.103 1.509-3.103h1.241l-2.188 4.107v2.393h-1.129v-2.393l-2.188-4.107h1.246zM39.045 18.159v0.888h-3.263v-0.888h3.263zM36.094 12.548v6.5h-1.121v-6.5h1.121zM41.107 12.548v6.5h-1.121v-6.5h1.121zM44.938 16.11h-1.656l-0.009-0.817h1.446c0.244 0 0.451-0.036 0.62-0.107 0.173-0.074 0.304-0.18 0.393-0.317 0.089-0.14 0.134-0.308 0.134-0.504 0-0.217-0.042-0.394-0.125-0.531s-0.211-0.237-0.384-0.299c-0.17-0.063-0.387-0.094-0.652-0.094h-1.085v5.607h-1.121v-6.5h2.205c0.357 0 0.676 0.034 0.955 0.103 0.283 0.069 0.522 0.176 0.719 0.321 0.199 0.143 0.35 0.324 0.451 0.545 0.104 0.22 0.156 0.482 0.156 0.786 0 0.268-0.064 0.513-0.192 0.737-0.128 0.22-0.317 0.4-0.567 0.54s-0.561 0.223-0.933 0.25l-0.357 0.281zM44.888 19.048h-1.96l0.504-0.888h1.455c0.253 0 0.464-0.042 0.634-0.125 0.17-0.086 0.296-0.204 0.38-0.353 0.086-0.152 0.129-0.329 0.129-0.531 0-0.211-0.037-0.394-0.112-0.549-0.074-0.158-0.192-0.278-0.353-0.362-0.161-0.086-0.37-0.13-0.629-0.13h-1.259l0.009-0.817h1.638l0.254 0.308c0.357 0.012 0.65 0.091 0.879 0.237 0.232 0.146 0.405 0.335 0.518 0.567s0.17 0.482 0.17 0.75c0 0.414-0.091 0.76-0.272 1.040-0.178 0.28-0.436 0.492-0.772 0.638-0.336 0.143-0.741 0.214-1.214 0.214zM48.277 12.548h2.299c0.494 0 0.915 0.074 1.263 0.223s0.615 0.369 0.799 0.661c0.188 0.289 0.281 0.646 0.281 1.071 0 0.324-0.059 0.61-0.178 0.857s-0.287 0.455-0.505 0.625c-0.217 0.167-0.476 0.296-0.777 0.388l-0.339 0.165h-2.067l-0.009-0.888h1.549c0.268 0 0.491-0.048 0.67-0.143s0.313-0.225 0.402-0.388c0.092-0.167 0.138-0.354 0.138-0.563 0-0.226-0.045-0.423-0.134-0.589-0.086-0.17-0.22-0.299-0.402-0.388-0.182-0.092-0.412-0.138-0.692-0.138h-1.179v5.607h-1.121v-6.5zM51.987 19.048l-1.527-2.92 1.174-0.005 1.549 2.866v0.058h-1.196zM56.567 13.414l-1.942 5.634h-1.174l2.446-6.5h0.75l-0.080 0.866zM58.192 19.048l-1.946-5.634-0.085-0.866h0.755l2.455 6.5h-1.178zM58.098 16.637v0.888h-3.536v-0.888h3.536zM60.098 12.548h2.299c0.494 0 0.915 0.074 1.263 0.223s0.615 0.369 0.799 0.661c0.188 0.289 0.281 0.646 0.281 1.071 0 0.324-0.060 0.61-0.179 0.857s-0.287 0.455-0.504 0.625c-0.217 0.167-0.476 0.296-0.777 0.388l-0.339 0.165h-2.067l-0.009-0.888h1.549c0.268 0 0.491-0.048 0.67-0.143s0.313-0.225 0.402-0.388c0.092-0.167 0.138-0.354 0.138-0.563 0-0.226-0.045-0.423-0.134-0.589-0.086-0.17-0.22-0.299-0.402-0.388-0.182-0.092-0.412-0.138-0.692-0.138h-1.179v5.607h-1.121v-6.5zM63.808 19.048l-1.527-2.92 1.174-0.005 1.549 2.866v0.058h-1.197zM66.263 12.548l1.509 3.103 1.509-3.103h1.241l-2.187 4.107v2.393h-1.13v-2.393l-2.188-4.107h1.246z"></path>
</symbol>
<symbol id="icon-home" viewBox="0 0 75 32">
<path fill="#000" style="fill: var(--color2, #000)" d="M16 0h43.429c8.837 0 16 7.163 16 16s-7.163 16-16 16h-43.429c-8.837 0-16-7.163-16-16s7.163-16 16-16z"></path>
<path fill="#fff" style="fill: var(--color1, #fff)" d="M29.687 15.262v0.888h-3.451v-0.888h3.451zM26.513 12.548v6.5h-1.121v-6.5h1.121zM30.549 12.548v6.5h-1.116v-6.5h1.116zM37.067 15.619v0.357c0 0.491-0.064 0.931-0.192 1.321s-0.311 0.722-0.549 0.996c-0.235 0.274-0.518 0.484-0.848 0.629-0.33 0.143-0.696 0.214-1.098 0.214-0.399 0-0.763-0.071-1.094-0.214-0.327-0.146-0.612-0.356-0.853-0.629s-0.429-0.606-0.563-0.996c-0.131-0.39-0.196-0.83-0.196-1.321v-0.357c0-0.491 0.065-0.93 0.196-1.317 0.131-0.39 0.315-0.722 0.554-0.996 0.241-0.277 0.525-0.487 0.853-0.629 0.33-0.146 0.695-0.219 1.094-0.219 0.402 0 0.768 0.073 1.098 0.219 0.33 0.143 0.615 0.353 0.853 0.629 0.238 0.274 0.421 0.606 0.549 0.996 0.131 0.387 0.196 0.826 0.196 1.317zM35.946 15.976v-0.366c0-0.363-0.036-0.683-0.107-0.96-0.069-0.28-0.171-0.513-0.308-0.701-0.134-0.19-0.299-0.333-0.496-0.429-0.196-0.098-0.418-0.147-0.665-0.147s-0.467 0.049-0.661 0.147c-0.193 0.095-0.359 0.238-0.495 0.429-0.134 0.188-0.237 0.421-0.308 0.701-0.071 0.277-0.107 0.597-0.107 0.96v0.366c0 0.363 0.036 0.685 0.107 0.964s0.176 0.516 0.312 0.71c0.14 0.19 0.307 0.335 0.5 0.433 0.193 0.095 0.414 0.143 0.661 0.143 0.25 0 0.472-0.048 0.665-0.143 0.193-0.098 0.357-0.243 0.491-0.433 0.134-0.193 0.235-0.43 0.304-0.71 0.071-0.28 0.107-0.601 0.107-0.964zM38.643 12.548h1l1.879 5.013 1.875-5.013h1l-2.482 6.5h-0.795l-2.478-6.5zM38.188 12.548h0.951l0.165 4.339v2.161h-1.116v-6.5zM43.902 12.548h0.955v6.5h-1.121v-2.161l0.165-4.339zM50.442 18.159v0.888h-3.451v-0.888h3.451zM47.308 12.548v6.5h-1.121v-6.5h1.121zM49.991 15.262v0.875h-3v-0.875h3zM50.42 12.548v0.893h-3.429v-0.893h3.429z"></path>
</symbol>
<symbol id="icon-rectangle" viewBox="0 0 142 32">
<path fill="#fff" style="fill: var(--color1, #fff)" d="M16 0h110.476c8.837 0 16 7.163 16 16s-7.163 16-16 16h-110.476c-8.837 0-16-7.163-16-16s7.163-16 16-16z"></path>
</symbol>
<symbol id="trailer-btn" viewBox="0 0 32 32">
<path d="M16 0c-8.837 0-16 7.163-16 16s7.163 16 16 16 16-7.163 16-16-7.163-16-16-16zM16 29c-7.18 0-13-5.82-13-13s5.82-13 13-13 13 5.82 13 13-5.82 13-13 13zM12 9l12 7-12 7z" fill="rgba(234,113,46,1)"></path>
</symbol>
    <symbol id="close-icon" viewBox="0 0 24 24">
        <path d="M18.3 5.71a1 1 0 0 0-1.41 0L12 10.59 7.11 5.71A1 1 0 1 0 5.7 7.12l4.89 4.88-4.89 4.89a1 1 0 0 0 1.41 1.41l4.89-4.89 4.88 4.89a1 1 0 1 0 1.41-1.41l-4.88-4.89 4.88-4.88a1 1 0 0 0 0-1.41z"></path>
    </symbol>
    <symbol id="watched-icon" viewBox="0 0 24 24">
        <path d="M12 2a10 10 0 1 0 10 10A10 10 0 0 0 12 2zm-1 15-5-5 1.41-1.41L11 14.17l5.59-5.59L18 10z"></path>
    </symbol>
    <symbol id="queue-icon" viewBox="0 0 24 24">
        <path d="M20 4H4a2 2 0 0 0-2 2v12a2 2 0 0 0 2 2h16a2 2 0 0 0 2-2V6a2 2 0 0 0-2-2zM4 6h16v5H4zm0 7h16v5H4z"></path>
    </symbol>
    <symbol id="icon-close" viewBox="0 0 32 32">
<path d="M31.708 25.708c-0-0-0-0-0-0l-9.708-9.708 9.708-9.708c0-0 0-0 0-0 0.105-0.105 0.18-0.227 0.229-0.357 0.133-0.356 0.057-0.771-0.229-1.057l-4.586-4.586c-0.286-0.286-0.702-0.361-1.057-0.229-0.13 0.048-0.252 0.124-0.357 0.228 0 0-0 0-0 0l-9.708 9.708-9.708-9.708c-0-0-0-0-0-0-0.105-0.104-0.227-0.18-0.357-0.228-0.356-0.133-0.771-0.057-1.057 0.229l-4.586 4.586c-0.286 0.286-0.361 0.702-0.229 1.057 0.049 0.13 0.124 0.252 0.229 0.357 0 0 0 0 0 0l9.708 9.708-9.708 9.708c-0 0-0 0-0 0-0.104 0.105-0.18 0.227-0.229 0.357-0.133 0.355-0.057 0.771 0.229 1.057l4.586 4.586c0.286 0.286 0.702 0.361 1.057 0.229 0.13-0.049 0.252-0.124 0.357-0.229 0-0 0-0 0-0l9.708-9.708 9.708 9.708c0 0 0 0 0 0 0.105 0.105 0.227 0.18 0.357 0.229 0.356 0.133 0.771 0.057 1.057-0.229l4.586-4.586c0.286-0.286 0.362-0.702 0.229-1.057-0.049-0.13-0.124-0.252-0.229-0.357z"></path>
</symbol>
<symbol id="icon-github" viewBox="0 0 32 32">
<path d="M16 0.395c-8.836 0-16 7.163-16 16 0 7.069 4.585 13.067 10.942 15.182 0.8 0.148 1.094-0.347 1.094-0.77 0-0.381-0.015-1.642-0.022-2.979-4.452 0.968-5.391-1.888-5.391-1.888-0.728-1.849-1.776-2.341-1.776-2.341-1.452-0.993 0.11-0.973 0.11-0.973 1.606 0.113 2.452 1.649 2.452 1.649 1.427 2.446 3.743 1.739 4.656 1.33 0.143-1.034 0.558-1.74 1.016-2.14-3.554-0.404-7.29-1.777-7.29-7.907 0-1.747 0.625-3.174 1.649-4.295-0.166-0.403-0.714-2.030 0.155-4.234 0 0 1.344-0.43 4.401 1.64 1.276-0.355 2.645-0.532 4.005-0.539 1.359 0.006 2.729 0.184 4.008 0.539 3.054-2.070 4.395-1.64 4.395-1.64 0.871 2.204 0.323 3.831 0.157 4.234 1.026 1.12 1.647 2.548 1.647 4.295 0 6.145-3.743 7.498-7.306 7.895 0.574 0.497 1.085 1.47 1.085 2.963 0 2.141-0.019 3.864-0.019 4.391 0 0.426 0.288 0.925 1.099 0.768 6.354-2.118 10.933-8.113 10.933-15.18 0-8.837-7.164-16-16-16z"></path>
</symbol>
</defs>
</svg>
